<?xml version="1.0" encoding="UTF-8" standalone="no"?>
<!-- Created with Inkscape (http://www.inkscape.org/) -->
<svg
   xmlns:dc="http://purl.org/dc/elements/1.1/"
   xmlns:cc="http://creativecommons.org/ns#"
   xmlns:rdf="http://www.w3.org/1999/02/22-rdf-syntax-ns#"
   xmlns:svg="http://www.w3.org/2000/svg"
   xmlns="http://www.w3.org/2000/svg"
   xmlns:sodipodi="http://sodipodi.sourceforge.net/DTD/sodipodi-0.dtd"
   xmlns:inkscape="http://www.inkscape.org/namespaces/inkscape"
   width="360"
   height="360"
   id="svg4598"
   sodipodi:version="0.32"
   inkscape:version="0.46"
   version="1.0"
   sodipodi:docname="006.svg"
   inkscape:output_extension="org.inkscape.output.svg.inkscape">
  <defs
     id="defs4600">
    <inkscape:perspective
       sodipodi:type="inkscape:persp3d"
       inkscape:vp_x="0 : 526.18109 : 1"
       inkscape:vp_y="0 : 1000 : 0"
       inkscape:vp_z="744.09448 : 526.18109 : 1"
       inkscape:persp3d-origin="372.04724 : 350.78739 : 1"
       id="perspective4606" />
  </defs>
  <sodipodi:namedview
     id="base"
     pagecolor="#ffffff"
     bordercolor="#666666"
     borderopacity="1.0"
     gridtolerance="5"
     guidetolerance="10"
     objecttolerance="10"
     inkscape:pageopacity="0.0"
     inkscape:pageshadow="2"
     inkscape:zoom="0.98994949"
     inkscape:cx="194.43307"
     inkscape:cy="225.89222"
     inkscape:document-units="pt"
     inkscape:current-layer="layer1"
     showgrid="true"
     units="pt"
     inkscape:object-nodes="true"
     inkscape:window-width="1279"
     inkscape:window-height="949"
     inkscape:window-x="0"
     inkscape:window-y="25">
    <inkscape:grid
       type="xygrid"
       id="grid4814"
       visible="true"
       enabled="true"
       units="pt"
       spacingx="9pt"
       spacingy="9pt"
       empspacing="8" />
  </sodipodi:namedview>
  <metadata
     id="metadata4603">
    <rdf:RDF>
      <cc:Work
         rdf:about="">
        <dc:format>image/svg+xml</dc:format>
        <dc:type
           rdf:resource="http://purl.org/dc/dcmitype/StillImage" />
        <dc:title>Yale University Shield</dc:title>
        <dc:date>2008.11.23</dc:date>
        <dc:creator>
          <cc:Agent>
            <dc:title>Yale University</dc:title>
          </cc:Agent>
        </dc:creator>
        <dc:source>Frank Trampe</dc:source>
      </cc:Work>
    </rdf:RDF>
  </metadata>
  <g
     inkscape:label="Layer 1"
     inkscape:groupmode="layer"
     id="layer1">
    <path
       style="fill:#0F4D92;fill-opacity:1;fill-rule:nonzero;stroke:none"
       d="M 62.09375 15.65625 C 62.384687 22.506406 62.374999 26.687187 62.375 34.21875 L 62.375 133.28125 C 62.375 146.73766 62.535158 161.45001 64.75 175.625 C 66.955 189.80984 71.19781 203.40829 79.25 214.71875 C 89.615469 229.2186 103.01703 240.04469 118.34375 248.6875 C 133.65078 257.32047 150.89047 263.77265 168.875 269.53125 L 168.90625 269.53125 C 172.73765 270.92687 176.10125 272.57874 179.96875 273.59375 C 184.57562 272.25828 187.62468 270.91376 191.4375 269.53125 L 191.46875 269.53125 C 209.2761 263.77265 226.43313 257.32047 241.75 248.6875 C 257.05922 240.04906 270.55328 229.24875 281.09375 214.75 C 288.97859 203.43953 293.1156 189.80985 295.28125 175.625 C 297.45672 161.45 297.625 146.73766 297.625 133.28125 L 297.625 34.21875 C 297.625 27.35875 297.64875 22.311719 297.9375 15.65625 C 291.84641 15.7 285.85126 16 278.34375 16 L 82 16 C 74.144687 16 68.445157 15.698906 62.09375 15.65625 z M 248.9375 54.53125 C 250.77582 57.683712 252.79711 60.419478 255.03125 63.21875 C 255.7846 64.164658 256.54406 65.08843 257.34375 66.0625 C 258.56437 65.885313 260.14545 65.791641 261.8125 65.75 C 263.47955 65.708359 265.23257 65.71875 266.8125 65.71875 L 266.8125 196.625 L 220.59375 196.625 C 216.55672 196.625 212.25547 196.78125 208.09375 196.78125 C 204.83437 196.78125 201.65072 196.68447 198.78125 196.375 C 197.63432 196.25445 196.53773 196.10462 195.5 195.90625 C 194.98094 195.80631 194.48658 195.68432 194 195.5625 C 194.6989 196.78805 195.14348 197.91603 195.40625 198.96875 C 195.40859 198.97798 195.40394 198.99078 195.40625 199 C 195.66318 200.04093 195.75 201.00733 195.75 201.875 C 195.75 202.29028 195.71208 202.68712 195.65625 203.0625 C 195.5446 203.81311 195.34669 204.49183 195.03125 205.09375 C 193.76936 207.50298 190.98293 208.77717 187.5 209.40625 C 186.62927 209.56352 185.69455 209.6668 184.75 209.75 C 183.33318 209.87481 181.85354 209.9375 180.34375 209.9375 C 178.76875 209.9375 177.34204 209.91284 176.03125 209.84375 C 174.06506 209.74011 172.36332 209.55503 170.9375 209.28125 C 167.15123 208.55422 165.15642 207.18512 164.34375 205.03125 C 164.34042 205.02231 164.34704 205.00897 164.34375 205 C 164.14549 204.46638 164.00092 203.88329 163.9375 203.25 C 163.93655 203.24023 163.93842 203.22854 163.9375 203.21875 C 163.90632 202.89603 163.90625 202.5682 163.90625 202.21875 C 163.90625 201.70242 163.92048 201.17693 163.96875 200.65625 C 163.96968 200.64627 163.9678 200.63498 163.96875 200.625 C 164.01907 200.09372 164.10818 199.57843 164.21875 199.03125 C 164.43777 197.93736 164.79078 196.78804 165.3125 195.5625 C 164.61797 195.84879 163.84922 196.08988 163.03125 196.28125 C 162.6232 196.37607 162.18385 196.45745 161.75 196.53125 C 160.8888 196.6784 159.97514 196.79771 159.03125 196.875 C 158.55502 196.91301 158.05532 196.9455 157.5625 196.96875 C 156.575 197.01698 155.56484 197.03125 154.53125 197.03125 C 153.35273 197.03125 152.14506 197.00684 150.9375 196.96875 C 148.56681 196.89562 146.207 196.76232 143.9375 196.6875 C 143.89661 196.68611 143.85331 196.68885 143.8125 196.6875 C 143.80183 196.68716 143.79192 196.68784 143.78125 196.6875 C 142.62742 196.64941 141.50856 196.625 140.4375 196.625 L 93.1875 196.625 L 93.1875 104.59375 C 93.1875 103.052 93.214517 101.48353 93.25 99.875 C 93.250897 99.833822 93.249086 99.791214 93.25 99.75 C 93.356606 95.002176 93.588751 90.001431 93.6875 85.0625 C 93.720771 83.398423 93.721781 81.735918 93.71875 80.09375 C 93.714204 77.630499 93.667672 75.227142 93.53125 72.875 C 93.485776 72.090953 93.439589 71.297457 93.375 70.53125 C 93.245822 68.998836 93.062774 67.50707 92.84375 66.0625 C 93.631249 66.151094 94.429285 66.194668 95.25 66.21875 C 96.891431 66.266914 98.574858 66.233086 100.21875 66.28125 C 101.03993 66.303398 101.86629 66.348907 102.65625 66.4375 C 104.05406 64.690235 105.53723 62.75 106.9375 60.78125 C 107.98771 59.304688 108.99541 57.814083 109.875 56.34375 C 110.16848 55.853207 110.45543 55.356113 110.71875 54.875 C 111.50502 55.356113 112.30243 55.824538 113.125 56.25 C 114.35886 56.888193 115.63393 57.459378 116.96875 57.96875 C 118.73978 58.644584 120.62886 59.216056 122.625 59.65625 C 122.63483 59.658418 122.64641 59.654087 122.65625 59.65625 C 123.65986 59.876836 124.67924 60.059586 125.75 60.21875 C 127.35614 60.457496 129.036 60.621809 130.8125 60.71875 C 131.99683 60.783377 133.23139 60.8125 134.5 60.8125 C 135.19081 60.8125 135.9782 60.808754 136.8125 60.78125 C 139.35357 60.694848 142.50156 60.50999 145.75 60.3125 C 147.91691 60.183594 150.14173 60.03418 152.28125 59.9375 C 153.35053 59.888127 154.39496 59.841301 155.40625 59.8125 C 156.41782 59.784302 157.39334 59.78125 158.3125 59.78125 C 166.01401 59.781251 172.55068 61.263369 176.21875 66.96875 C 176.72007 67.747273 177.17212 68.620295 177.5625 69.5625 C 177.82275 70.190637 178.04227 70.856502 178.25 71.5625 C 178.5616 72.621497 178.81378 73.754312 179 75 C 179.12415 75.830458 179.21603 76.706455 179.28125 77.625 C 179.35785 77.143579 179.4424 76.675166 179.53125 76.21875 C 179.79779 74.849503 180.12672 73.593268 180.5 72.4375 C 180.74885 71.666988 181.01816 70.932058 181.3125 70.25 C 181.75401 69.226913 182.24177 68.307276 182.78125 67.46875 C 182.96108 67.189241 183.15343 66.916537 183.34375 66.65625 C 183.72439 66.135676 184.10979 65.666294 184.53125 65.21875 C 188.74582 60.743309 194.96807 59.78125 202.40625 59.78125 C 203.20371 59.78125 203.99334 59.792663 204.8125 59.8125 C 207.23884 59.868897 209.7507 59.996094 212.34375 60.125 C 214.07194 60.213594 215.80511 60.308555 217.59375 60.375 C 219.39301 60.440088 221.21333 60.46875 223.0625 60.46875 C 225.62391 60.46875 227.88669 60.373347 229.90625 60.21875 C 230.63607 60.162253 231.35979 60.106548 232.03125 60.03125 C 232.66503 59.960535 233.25651 59.899232 233.84375 59.8125 C 235.01822 59.639037 236.10379 59.421039 237.125 59.1875 C 241.72043 58.136574 245.00062 56.502461 248.9375 54.53125 z M 275.21875 63.625 C 275.29349 63.625 275.35173 63.647458 275.4375 63.6875 C 275.65787 63.77951 275.88975 63.986816 276.1875 64.28125 C 276.58633 64.675308 277.04681 65.19334 277.59375 65.71875 C 278.2782 66.378717 279.09205 67.035321 280.03125 67.4375 C 280.58991 67.676727 281.18852 67.8125 281.84375 67.8125 C 282.28179 67.8125 282.7082 67.754163 283.15625 67.625 C 284.5004 67.237512 285.95031 66.260039 287.78125 64.6875 C 287.65021 65.321807 287.53904 66.007148 287.4375 66.75 C 287.24173 68.182518 287.0901 69.79257 286.96875 71.53125 C 286.96423 71.595973 286.9732 71.653695 286.96875 71.71875 C 286.96801 71.729474 286.96948 71.739267 286.96875 71.75 C 286.96533 71.800235 286.97213 71.855821 286.96875 71.90625 C 286.78954 74.577302 286.65042 77.517009 286.5 80.5 C 286.39738 82.533156 286.27826 84.592681 286.125 86.59375 C 285.97181 88.595415 285.78699 90.548927 285.53125 92.375 C 285.21149 94.656893 284.78998 96.744599 284.21875 98.5 C 283.76182 99.904728 283.20753 101.09383 282.53125 102 C 282.02402 102.67947 281.4374 103.20271 280.78125 103.53125 C 280.52399 103.62812 280.23263 103.7163 279.9375 103.78125 C 279.47038 103.88406 278.97664 103.93587 278.4375 103.96875 C 278.14424 103.98663 277.83942 104 277.53125 104 C 276.86652 104 276.16945 103.96354 275.46875 103.90625 C 273.36665 103.73439 271.20731 103.36879 269.59375 103.1875 C 269.59376 102.84297 269.25 101.41843 269.25 100.375 L 269.25 94.78125 L 269.25 92.3125 C 270.07907 92.459064 270.81079 92.53125 271.4375 92.53125 C 273.11264 92.531251 274.12428 92.001787 274.75 91.03125 C 274.75712 91.019925 274.77423 91.011446 274.78125 91 C 275.0443 90.580985 275.22613 90.08166 275.375 89.5 C 275.37731 89.490888 275.37271 89.4779 275.375 89.46875 C 275.67462 88.280652 275.79182 86.776719 275.90625 84.96875 C 276.16518 79.70854 275.82322 74.272656 275.34375 69.21875 C 275.18533 67.535469 275.01848 65.91629 274.84375 64.34375 C 274.84375 64.166561 274.8568 63.97914 274.90625 63.84375 C 274.9557 63.70836 275.04156 63.625 275.21875 63.625 z M 84.4375 66.0625 C 84.4375 66.763867 84.408203 67.670886 84.34375 68.75 C 84.343004 68.762335 84.344502 68.768873 84.34375 68.78125 C 84.279484 69.853855 84.178956 71.081745 84.09375 72.40625 C 83.962705 74.407915 83.838582 76.63472 83.78125 78.875 C 83.762451 79.622072 83.75 80.381797 83.75 81.125 C 83.75 86.336035 84.293458 91.249617 85.59375 92.875 C 85.598561 92.881132 85.588918 92.900209 85.59375 92.90625 C 85.775217 93.128406 85.975723 93.288854 86.1875 93.375 C 86.276094 93.418066 86.371283 93.467049 86.5 93.5 C 86.510087 93.502709 86.520926 93.497353 86.53125 93.5 C 86.549628 93.504521 86.574671 93.49566 86.59375 93.5 C 86.951529 93.581383 87.429302 93.656987 87.96875 93.6875 C 88.013812 93.690145 88.047858 93.685124 88.09375 93.6875 C 88.920041 93.728889 89.884092 93.71875 90.75 93.71875 C 90.572811 93.895938 90.580703 94.175957 90.625 94.53125 C 90.647148 94.706592 90.659814 94.874573 90.6875 95.09375 C 90.717186 95.323808 90.75 95.566723 90.75 95.84375 C 90.690935 95.853591 90.621562 95.865157 90.5625 95.875 L 90.5625 101.09375 C 90.621564 101.08718 90.690938 101.06906 90.75 101.0625 C 90.395622 101.76141 90.40625 103.53047 90.40625 103.875 C 89.874687 103.94226 89.296523 104.024 88.71875 104.125 C 86.986948 104.42564 85.054775 104.8125 83.09375 104.8125 C 82.265783 104.8125 81.430469 104.76109 80.59375 104.59375 C 80.055922 104.48606 79.555403 104.27598 79.09375 104 C 79.08679 103.99579 79.069443 104.00425 79.0625 104 C 76.248177 102.29655 74.815101 97.635357 74 92.03125 C 73.730232 90.176501 73.531391 88.203054 73.375 86.21875 C 72.981923 81.231338 72.853473 76.068983 72.59375 71.90625 C 72.489861 70.241157 72.363457 68.738594 72.1875 67.46875 C 74.294064 68.522032 76.758438 69.9375 78.15625 69.9375 C 78.505703 69.9375 78.949492 69.782881 79.46875 69.53125 C 79.7275 69.404211 79.998726 69.263469 80.28125 69.09375 C 80.576527 68.919803 80.847936 68.736793 81.15625 68.53125 C 82.332812 67.737227 83.561407 66.761406 84.4375 66.0625 z M 84.78125 136.09375 C 84.522852 138.19047 84.087718 142.82925 83.875 147.09375 C 83.805237 148.51431 83.75 149.89945 83.75 151.125 C 83.75 154.62936 84.102968 159.87359 85.15625 161.28125 C 85.243477 161.41168 85.341958 161.50484 85.46875 161.59375 C 85.595542 161.68266 85.744395 161.75917 85.90625 161.8125 C 86.068105 161.86583 86.245083 161.91381 86.4375 161.9375 C 86.64021 161.96488 86.832457 161.96875 87.0625 161.96875 C 87.937499 161.96874 89.009219 161.80219 90.0625 161.625 L 90.75 164.0625 C 90.685466 164.08657 90.628125 164.13328 90.5625 164.15625 L 89.6875 170.03125 L 90.40625 173.53125 C 88.200156 173.70078 86.316719 173.78125 84.71875 173.78125 C 82.830489 173.78125 81.346065 173.66031 80.15625 173.40625 C 79.761096 173.3237 79.424507 173.23626 79.09375 173.125 C 78.1023 172.78924 77.393854 172.32242 76.875 171.71875 C 76.695881 171.51312 76.542264 171.30095 76.40625 171.0625 C 76.256909 170.82799 76.105436 170.52293 75.96875 170.15625 C 75.96577 170.14816 75.971724 170.13315 75.96875 170.125 C 75.691447 169.37286 75.416476 168.35305 75.1875 167.15625 C 75.185716 167.14687 75.189281 167.1344 75.1875 167.125 C 74.612394 164.10527 74.203167 159.89517 73.875 155.5625 C 73.874219 155.55213 73.87578 155.54162 73.875 155.53125 C 73.349453 148.58111 73.078516 141.3375 72.90625 138.1875 C 73.124043 138.31916 73.320552 138.46687 73.53125 138.625 C 74.591238 139.41831 75.580745 140.46245 76.96875 141 C 76.977476 141.00342 76.991244 140.99662 77 141 C 77.267639 141.10196 77.544739 141.19241 77.84375 141.25 C 77.853928 141.25202 77.864783 141.24804 77.875 141.25 C 78.175751 141.30611 78.505122 141.34375 78.84375 141.34375 C 79.172285 141.34375 79.53835 141.19785 79.90625 140.96875 C 80.145922 140.81919 80.375087 140.62414 80.625 140.40625 C 80.763934 140.28604 80.890294 140.16715 81.03125 140.03125 C 81.285464 139.78616 81.555649 139.52813 81.8125 139.25 C 81.817698 139.24435 81.807302 139.22441 81.8125 139.21875 C 82.336679 138.65027 82.872353 138.0574 83.375 137.5 C 83.632188 137.21421 83.881852 136.96247 84.125 136.71875 C 84.35634 136.48686 84.567677 136.26413 84.78125 136.09375 z M 274.5 138.53125 C 274.84946 138.88316 275.2657 139.37933 275.71875 139.9375 C 276.39935 140.77568 277.17626 141.7492 277.9375 142.5 C 278.31747 142.87482 278.66554 143.17746 279.03125 143.40625 C 279.0383 143.41073 279.05546 143.40184 279.0625 143.40625 C 279.29838 143.55151 279.52814 143.6948 279.75 143.75 C 279.8735 143.78284 279.97602 143.78125 280.09375 143.78125 C 282.05168 143.78125 283.2057 142.95038 284.21875 142 C 284.42613 141.80328 284.64185 141.60845 284.84375 141.40625 C 285.23204 141.01739 285.63021 140.62611 286.0625 140.28125 C 285.97391 141.85625 285.87043 144.48607 285.75 147.625 C 285.74949 147.63826 285.75051 147.64297 285.75 147.65625 C 285.56847 152.36433 285.31439 158.15814 284.875 163.125 C 284.43561 168.09186 283.82541 172.21711 282.90625 173.53125 C 282.74437 173.75766 282.57456 173.95441 282.375 174.15625 C 282.17072 174.36437 281.96706 174.56919 281.71875 174.75 C 281.7125 174.75461 281.69378 174.74541 281.6875 174.75 C 281.20925 175.09493 280.63136 175.38623 279.96875 175.625 C 279.29712 175.8685 278.51697 176.06148 277.625 176.1875 C 276.73303 176.31352 275.73699 176.375 274.59375 176.375 C 272.97829 176.375 271.09813 176.24109 268.90625 175.96875 L 269.59375 172.84375 L 268.5625 166.875 L 269.25 164.78125 C 269.95438 164.89937 270.66281 164.96875 271.3125 164.96875 C 271.62551 164.96875 271.93617 164.94719 272.21875 164.90625 C 272.50994 164.86228 272.7855 164.78519 273.03125 164.6875 C 273.14527 164.64213 273.27281 164.58974 273.375 164.53125 C 273.4841 164.46715 273.59379 164.39307 273.6875 164.3125 C 273.77591 164.23641 273.86418 164.12309 273.9375 164.03125 C 274.01421 163.93299 274.09814 163.83592 274.15625 163.71875 C 274.22208 163.63139 274.28331 163.51993 274.34375 163.40625 C 274.5249 163.06536 274.67719 162.63096 274.8125 162.09375 C 274.99371 161.37678 275.14005 160.50411 275.25 159.5625 C 275.46779 157.68111 275.56249 155.48695 275.5625 153.5625 C 275.5625 152.34852 275.50924 150.97061 275.4375 149.5625 C 275.43698 149.55217 275.43802 149.54158 275.4375 149.53125 C 275.36533 148.12223 275.26656 146.66982 275.15625 145.28125 C 275.15539 145.27013 275.15712 145.26111 275.15625 145.25 C 274.93369 142.45441 274.67227 139.93399 274.5 138.53125 z "
       id="path473" />
    <path
       d="M 299.35055,14.275545 C 298.99617,21.628826 298.99617,26.875545 298.99617,34.228826 L 298.99617,133.27664 C 298.99617,160.22883 298.29727,192.42773 282.20274,215.53101 C 260.85164,244.92445 227.59946,259.27664 191.89617,270.82336 C 188.04727,272.22117 184.89727,273.62883 179.99508,275.02664 C 175.80164,273.97336 172.29727,272.22117 168.44836,270.82336 C 132.40055,259.27664 99.148362,244.92445 78.151644,215.53101 C 61.702738,192.42773 61.003831,160.22883 61.003831,133.27664 L 61.003831,34.228826 C 61.003831,26.176639 61.003831,21.973357 60.649456,14.275545 C 67.648362,14.275545 73.603831,14.62992 82.00055,14.62992 L 278.35383,14.62992 C 286.39617,14.62992 292.69617,14.275545 299.35055,14.275545"
       style="fill:#0F4D92;fill-opacity:1;fill-rule:nonzero;stroke:none"
       id="path369" />
    <path
       id="path413"
       style="fill:#1c1b1a;fill-opacity:1;fill-rule:nonzero;stroke:none"
       d="M 179.99508,352.02445 C 126.10055,352.02445 86.193986,342.22992 41.050549,322.63101 C 45.952736,312.82664 50.146174,286.22883 50.146174,272.57554 C 82.699455,292.52882 132.40055,303.37664 179.99508,303.37664 C 228.29836,303.37664 277.65492,292.52882 310.19836,272.57554 C 310.19836,286.22883 314.40164,312.82664 319.29399,322.63101 C 274.15055,342.22992 234.25383,352.02445 179.99508,352.02445 M 47.704924,319.82554 C 86.193986,337.68211 129.60492,347.12226 180.34946,347.12226 C 231.10383,346.77773 274.15055,337.68211 312.64945,319.82554 C 310.48602,314.26382 306.14274,294.51726 306.11649,283.70664 C 306.1132,282.27164 306.18539,280.99523 306.34945,279.92883 C 273.80602,298.82882 222.35274,308.62336 179.99508,308.62336 C 137.64727,308.62336 86.548361,298.82882 54.004924,279.92883 C 54.168986,280.99523 54.245549,282.27164 54.249924,283.70664 C 54.282736,294.51726 50.172424,314.26382 47.704924,319.82554M 182.45601,338.37117 L 178.95163,338.37117 C 176.50054,332.08101 173.35054,324.02883 170.20054,316.32117 L 175.44726,316.67554 C 176.85492,321.57773 179.29617,327.87773 181.04835,332.77992 C 183.14507,328.57664 185.59617,322.27664 186.64945,317.02992 L 191.55164,316.67554 C 188.40163,323.32992 185.25163,330.67336 182.45601,338.37117M 195.40055,338.02664 C 195.40055,337.91726 195.40055,337.8068 195.40055,337.69633 C 195.40055,337.58586 195.40055,337.4743 195.40055,337.36273 C 195.39946,330.41961 195.37868,321.07023 194.70164,316.32117 C 198.19618,316.32117 203.79727,315.63211 207.64617,315.27773 L 209.39836,319.48102 L 208.69946,319.82555 C 205.90383,318.07336 201.34618,318.78211 199.60383,318.42773 C 199.60383,320.87883 199.24946,322.27664 199.24946,325.07226 L 206.60274,324.3832 L 206.94727,327.87773 C 205.54946,327.52336 202.04508,327.52336 199.60383,327.52336 C 199.60383,329.97445 199.94836,332.77992 200.30274,335.23102 C 203.79727,334.87664 208.35493,333.82336 210.79618,332.42555 L 211.50493,332.77992 L 210.09727,337.32773 C 204.85055,337.68211 201.70055,337.32773 195.40055,338.02664M 153.75164,337.68211 L 148.49508,337.32774 C 149.90273,330.67336 150.60164,325.07227 150.60164,318.07336 C 149.85023,318.00008 149.18086,317.95742 148.56617,317.95742 C 146.31523,317.95742 144.82227,318.52508 142.90383,320.17992 L 142.54945,319.82555 C 142.90383,318.78211 144.30164,315.63211 144.64617,314.57883 C 150.24726,315.63211 155.84836,316.32117 161.79398,316.32117 L 162.84727,321.57774 L 162.14836,321.92227 C 161.09508,320.52445 157.94508,318.42774 155.14945,318.07336 C 154.84211,322.13227 153.69258,329.7907 153.69477,335.62477 C 153.69477,336.34227 153.71336,337.03024 153.75164,337.68211M 216.05273,336.97336 C 216.05273,330.67336 214.64507,321.92227 213.95601,314.92336 C 217.45054,314.57883 219.90164,313.52555 223.05164,313.52555 C 228.29835,313.52555 230.05054,316.32117 230.05054,318.42774 C 230.05054,321.92227 228.99726,322.97555 226.90054,324.72773 C 230.05054,328.57664 232.84617,331.02774 237.40382,333.82336 L 237.40382,334.52227 C 236.68304,334.58899 236.0071,334.6207 235.36726,334.6207 C 229.16789,334.6207 226.57351,331.55711 223.39617,326.47992 L 219.54726,326.82445 C 219.90164,330.32883 219.90164,330.67336 220.95492,336.27445 L 216.05273,336.97336 M 218.49398,316.32117 L 219.20273,324.3832 C 223.05164,324.02883 225.50273,322.97555 225.50273,319.82555 C 225.50273,318.07336 224.44945,316.32117 221.29945,316.32117 L 218.49398,316.32117M 138.70055,335.57555 C 133.45383,334.87664 130.29399,334.17774 124.00383,333.47883 C 125.40164,326.47993 127.49836,316.32118 127.85274,312.12774 C 131.34727,312.82664 135.89508,313.52555 139.74399,314.22446 L 140.45274,319.12664 L 139.74399,319.12664 C 138.70055,317.02993 133.45383,315.63211 131.70164,315.27774 C 131.00274,317.37446 130.64836,319.48102 130.29399,322.27664 L 137.30274,322.63102 L 136.94836,326.47993 C 135.55055,325.77118 132.40055,325.07227 129.94946,324.72774 C 129.60492,327.17883 129.25055,329.27555 128.89617,331.72664 C 130.64289,331.90274 132.90914,332.07774 135.04743,332.07774 C 137.19992,332.07774 139.22336,331.90055 140.45274,331.37227 L 140.79727,331.72664 L 138.70055,335.57555M 240.19945,333.47883 C 239.15601,326.82446 237.74836,318.42774 236.00601,311.42883 L 240.89836,310.37555 C 241.25273,316.32117 243.34945,326.82446 245.10164,332.42555 L 240.19945,333.47883M 111.74836,331.02773 L 106.84617,329.97445 C 106.50164,327.87773 104.74945,322.63101 104.05055,320.17992 L 96.697266,327.17882 L 92.84836,325.77117 C 95.99836,323.32992 99.492891,320.17992 102.65274,317.72882 C 100.90055,312.12773 100.20164,309.67664 98.803829,306.18211 L 104.39508,307.92445 C 104.74945,310.03101 105.80273,313.52554 106.50164,315.97664 L 113.50055,309.67664 L 116.99508,310.37554 C 114.19945,312.47226 110.35055,315.97664 107.55492,318.42773 C 109.65164,325.07226 110.70492,327.52336 111.74836,331.02773M 256.64836,329.62992 C 255.25055,322.97555 254.19727,317.72883 252.10055,310.72992 C 248.60602,311.42883 247.55274,312.82664 245.80055,315.27773 L 245.10164,315.27773 C 245.44617,312.82664 245.44617,310.72992 245.80055,309.67664 C 251.04727,308.97773 257.00274,307.57992 262.24945,305.82773 C 262.94836,307.22555 264.00164,308.97773 265.05492,310.37555 L 264.34617,311.07445 C 263.14086,310.4718 260.37695,309.60555 257.83945,309.60555 C 257.43477,309.60555 257.03445,309.62742 256.64836,309.67664 C 257.70164,314.57883 259.09945,322.63101 261.20602,328.23211 L 256.64836,329.62992M 267.15164,326.82445 C 268.54945,318.78211 269.60273,312.12773 270.30164,303.02226 L 274.15055,301.97883 C 278.35383,307.57992 283.60055,314.92336 287.79398,319.82554 L 283.60055,321.57773 C 281.84836,318.42773 279.40711,315.27773 279.40711,315.27773 C 279.40711,315.27773 273.80602,317.02992 271.69945,317.72883 C 271.35492,320.17992 271.00055,323.32992 271.00055,325.42664 L 267.15164,326.82445 M 272.05383,314.57882 L 277.65492,312.82664 L 272.75273,306.87117 L 272.05383,314.57882M 83.398361,323.67445 C 80.602736,323.67445 74.302736,321.92226 74.302736,316.67554 C 74.302736,311.77336 77.797267,304.42992 78.850548,299.87226 L 83.398361,301.62445 C 82.34508,304.42992 78.850548,314.57882 78.850548,316.67554 C 78.850548,320.17992 82.000548,320.87883 83.752736,320.87883 C 86.548361,320.87883 88.300548,316.32117 89.698361,311.42882 C 90.397267,308.97773 91.096173,306.18211 91.79508,304.42992 L 95.299455,305.47336 C 94.600549,307.92445 93.901642,310.72992 92.848361,313.52554 C 91.096173,318.78211 89.35383,323.67445 83.398361,323.67445M 292.35164,318.42773 L 290.25492,318.42773 L 287.44945,312.82664 L 287.79398,312.82664 C 289.90055,313.87992 293.39508,315.63211 296.20055,315.63211 C 297.95273,315.63211 299.35055,314.57882 299.35055,312.12773 C 299.35055,306.1821 285.35273,310.72992 285.35273,302.3332 C 285.35273,295.67882 291.99726,293.92664 296.89945,293.92664 L 299.35055,299.17336 L 298.65164,299.87226 C 297.24398,298.47445 294.80273,296.7321 292.35164,296.7321 C 290.25492,296.7321 288.84726,297.77554 288.84726,300.22664 C 288.84726,306.1821 302.84508,300.92554 302.84508,310.72992 C 302.84508,315.27773 297.24398,318.42773 292.35164,318.42773M 68.701642,318.42773 C 63.799455,316.32117 63.100548,315.63211 57.154923,314.22445 C 60.304923,306.87117 61.702736,300.22664 63.100548,293.22773 L 68.002736,295.32445 C 65.551642,301.27992 63.799455,306.1821 62.401642,313.18101 C 65.29133,314.04179 67.458048,314.66742 69.702423,314.66742 C 70.179298,314.66742 70.660548,314.63898 71.152736,314.57882 L 71.497267,314.92336 C 70.808205,315.97664 69.046173,317.72882 68.701642,318.42773M 41.749454,305.47336 C 33.697266,303.02227 23.902735,296.73211 16.549454,294.62555 L 16.549454,293.57227 C 19.699454,291.47555 32.653829,278.53102 33.352735,275.72555 C 31.954923,265.57664 28.096173,250.18102 26.353829,244.92445 L 27.052735,244.57992 C 41.050548,255.42774 61.34836,265.23211 78.496173,272.57555 L 78.151641,278.17664 C 55.402735,268.38211 44.545079,261.37336 34.051642,255.42774 C 36.14836,261.37336 37.201642,271.17773 38.953829,276.77883 C 33.697266,281.32664 30.202735,288.32555 24.601641,292.52883 C 30.202735,293.92664 36.502735,298.12008 42.44836,300.22664 L 41.749454,305.47336M 318.25055,304.77445 L 317.19727,299.52773 C 323.15274,297.43101 330.15164,293.57226 335.39836,291.47554 C 330.15164,286.92773 325.60383,281.32664 320.70164,275.72554 C 322.09946,270.12445 323.85164,260.32992 325.94836,254.02992 C 315.10055,259.63101 304.24289,266.97445 281.14946,277.47773 L 281.14946,271.52226 C 294.10383,266.27554 321.40055,252.27773 332.60274,243.52664 L 333.64617,243.88101 C 331.89399,249.12773 328.04508,264.5332 326.64727,273.97336 C 327.34617,277.12336 338.90274,289.37883 343.45055,292.17445 L 343.45055,293.22773 C 336.09727,294.97992 326.64727,303.02226 318.25055,304.77445" />
    <path
       d="M 179.99508,275.02664 C 175.80164,273.97336 172.29727,272.22117 168.44836,270.82336 C 132.40055,259.27664 99.148361,244.92445 78.151642,215.53101 C 61.702736,192.42773 61.00383,160.22883 61.00383,133.27664 L 61.00383,34.228828 C 61.00383,34.103046 61.00383,33.978359 61.00383,33.853671 C 61.00383,33.730077 61.00383,33.607577 61.00383,33.485077 C 61.00383,33.362578 61.00383,33.241171 61.00383,33.120859 C 61.00383,33.000546 61.00383,32.881327 61.00383,32.762109 C 61.002736,25.637421 60.981955,21.492109 60.649455,14.275546 C 67.648361,14.275546 73.60383,14.629921 82.000549,14.629921 L 278.35383,14.629921 C 286.39617,14.629921 292.69617,14.275546 299.35055,14.275546 C 298.99617,21.628827 298.99617,26.875546 298.99617,34.228828 L 298.99617,133.27664 C 298.99617,160.22883 298.29727,192.42773 282.20274,215.53101 C 260.85164,244.92445 227.59946,259.27664 191.89617,270.82336 C 188.04727,272.22117 184.89727,273.62883 179.99508,275.02664 M 62.081174,15.648203 C 62.372111,22.498359 62.372111,26.697265 62.372111,34.228828 L 62.372111,133.27664 C 62.372111,146.73305 62.549299,161.4593 64.764143,175.6343 C 66.969143,189.81914 71.211799,203.4232 79.263986,214.73367 C 89.629455,229.23351 103.00711,240.04195 118.33383,248.68476 C 133.64086,257.31773 150.88711,263.76539 168.87164,269.52398 L 168.90117,269.53383 L 168.92086,269.54367 C 172.75227,270.9393 176.11117,272.59305 179.97867,273.60805 C 184.58555,272.27258 187.62071,270.92617 191.43352,269.54367 L 191.46305,269.53383 L 191.48274,269.52398 C 209.29008,263.76539 226.44774,257.31773 241.76461,248.68476 C 257.07383,240.04633 270.54336,229.24445 281.08383,214.7457 L 281.08055,214.74351 C 288.96539,203.43305 293.11946,189.81914 295.28508,175.6343 C 297.46055,161.4593 297.63774,146.73305 297.63774,133.27664 L 297.63774,34.228828 C 297.63774,27.368827 297.63774,22.304765 297.92649,15.649296 C 291.83539,15.693046 285.86133,15.998202 278.35383,15.998202 L 82.000549,15.998202 C 74.145236,15.998202 68.43258,15.690859 62.081174,15.648203"
       style="fill:#0F4D92;fill-opacity:1;fill-rule:nonzero;stroke:none"
       id="path477" />
    <path
       id="path497"
       style="fill:#fff000;fill-opacity:1;fill-rule:nonzero;stroke:none"
       d="M 99.847267,186.82664 L 99.148361,186.47226 C 100.20164,181.57992 100.54617,175.97883 100.54617,170.02336 C 100.54617,162.32555 99.847267,154.62773 99.847267,148.32773 L 99.847267,73.781015 C 105.80274,70.975546 107.55492,66.772265 109.99617,62.578827 C 109.64727,66.427734 109.56086,71.06414 109.56195,75.788046 C 109.56305,80.511953 109.65164,85.323359 109.65164,89.521171 L 109.65164,147.27445 C 109.65164,152.21492 109.96664,157.9418 109.96227,163.39852 C 109.96008,166.06289 109.88133,168.66383 109.65164,171.07664 C 109.29727,172.82883 101.24508,186.47226 99.847267,186.82664M 178.25273,194.87883 C 175.10273,194.17992 172.29726,193.12664 170.20054,192.07336 C 169.14726,191.37445 167.74945,189.27774 166.69617,189.27774 C 166.35164,189.27774 164.25492,190.32117 163.54617,190.32117 C 158.99836,191.02992 154.09617,191.37445 148.84945,191.37445 C 138.70054,191.37445 128.19726,190.32117 118.40273,190.32117 C 116.84414,190.32117 115.26476,190.30039 113.70507,190.30039 C 108.96039,190.30039 104.40929,190.49508 101.24507,192.07336 C 105.44836,185.77336 109.99617,179.47336 113.50054,172.12992 C 119.44617,174.58102 123.29507,176.67774 135.55054,176.67774 C 141.49617,176.67774 147.79617,176.3332 153.39726,176.3332 C 159.69726,176.3332 165.29836,177.02227 169.50164,179.12883 C 175.10273,182.27883 177.89836,187.52555 178.25273,194.87883M 181.04836,194.87883 C 181.40274,188.57883 184.19836,182.62336 188.74617,179.82774 C 192.9943,176.71602 199.30961,176.0543 206.29867,176.0543 C 208.88102,176.0543 211.55524,176.14399 214.25133,176.23477 C 216.93977,176.32446 219.65008,176.41414 222.31117,176.41414 C 225.2118,176.41414 228.05336,176.30695 230.74945,175.97883 C 237.04945,175.62445 241.25274,173.17336 245.80055,171.43102 C 249.30492,178.07555 253.85273,184.03102 258.05602,190.32117 C 255.25055,189.63211 251.40164,189.63211 247.55274,189.63211 C 241.25274,189.63211 230.05055,190.32117 223.75055,190.32117 L 206.24836,190.32117 C 205.87211,190.34742 205.49149,190.35836 205.10867,190.35836 C 203.30617,190.35836 201.44242,190.10024 199.67273,189.84867 C 197.91508,189.59164 196.24164,189.33024 194.80117,189.33024 C 193.98195,189.33024 193.23711,189.41446 192.59508,189.63211 C 191.55164,189.63211 190.15383,191.37445 189.10055,192.07336 C 186.64945,193.48102 184.19836,194.17992 181.04836,194.87883M 260.85164,186.12773 C 259.09945,184.03101 257.70164,182.27882 255.94945,179.82773 C 254.19726,177.73101 250.70273,173.87226 250.34836,171.07664 C 249.89008,168.77976 249.73148,166.29476 249.72711,163.74523 C 249.71726,158.52367 250.34836,153.02976 250.34836,148.32773 L 250.34836,92.326636 C 250.34836,88.347574 250.40633,84.136636 250.40523,79.927886 C 250.40414,73.776636 250.27508,67.630855 249.64945,62.224449 C 251.75601,66.42773 255.25055,71.329918 259.79836,73.072261 L 259.79836,146.92992 C 259.79836,152.44242 259.66492,158.35632 259.66055,164.26148 C 259.65617,171.85429 259.86617,179.43289 260.85164,186.12773" />
    <path
       d="M 179.99508,282.37992 C 178.60711,281.67117 175.44727,280.62773 174.39399,280.27336 C 130.29399,265.23211 96.697267,252.97664 72.550549,219.37992 C 57.499455,198.02883 54.349455,171.77555 54.349455,138.17883 L 54.349455,7.975545 L 305.99508,7.975545 L 305.99508,138.17883 C 305.99508,171.77555 302.50055,198.02883 287.44946,219.37992 C 263.64727,252.97664 230.05055,265.23211 185.59617,280.27336 C 184.55274,280.62773 181.74727,281.67117 179.99508,282.37992 M 168.03492,272.13148 C 171.76789,273.48773 175.30946,275.25742 179.67024,276.35555 L 180.02461,276.44414 L 180.37899,276.3457 C 185.36977,274.91836 188.57883,273.48117 192.36867,272.11289 L 192.36649,272.10742 C 210.24602,266.33242 227.54367,259.83008 243.10336,251.06695 C 258.67617,242.28633 272.4968,231.22195 283.31508,216.32836 L 283.32492,216.31851 L 283.32492,216.30867 C 291.54446,204.51586 295.78711,190.47867 297.99211,176.04773 C 300.19711,161.6168 300.3743,146.76258 300.3743,133.27664 L 300.3743,34.228826 C 300.3743,26.875545 300.3743,21.658358 300.71883,14.344451 L 299.35055,14.27992 L 299.35055,12.907264 C 292.64695,12.907264 286.36664,13.261639 278.35383,13.261639 L 82.000549,13.261639 C 73.643205,13.261639 67.707424,12.907264 60.659299,12.907264 L 59.222111,12.907264 L 59.291017,14.344451 C 59.635549,22.012733 59.635549,26.176639 59.635549,34.228826 L 59.635549,133.27664 C 59.635549,146.76258 59.812736,161.6168 62.057111,176.05758 C 64.31133,190.48851 68.64258,204.5257 77.039299,216.31851 C 87.680392,231.22195 101.41242,242.28633 116.98524,251.06695 C 132.55805,259.83773 149.97164,266.34445 168.03492,272.13258 L 168.03492,272.13148"
       style="fill:#1c1b1a;fill-opacity:1;fill-rule:nonzero;stroke:none"
       id="path517" />
    <path
       d="M 180.02461,276.44414 L 179.67023,276.35555 C 175.30945,275.25742 171.76789,273.48773 168.03492,272.13148 L 168.03492,272.13258 C 149.97164,266.34445 132.55805,259.83773 116.98523,251.06695 C 101.41242,242.28633 87.680391,231.22195 77.039297,216.31851 C 68.642579,204.5257 64.311329,190.48852 62.05711,176.05758 C 59.812735,161.6168 59.635548,146.76258 59.635548,133.27664 L 59.635548,34.228827 C 59.635548,26.17664 59.635548,22.012734 59.291016,14.344453 L 59.22211,12.907265 L 60.659297,12.907265 C 67.707422,12.907265 73.643204,13.26164 82.000547,13.26164 L 278.35383,13.26164 C 286.36664,13.26164 292.64695,12.907265 299.35055,12.907265 L 299.35055,14.275546 C 292.69617,14.275546 286.39617,14.629921 278.35383,14.629921 L 82.000547,14.629921 C 73.603829,14.629921 67.64836,14.275546 60.649454,14.275546 C 60.981954,21.492109 61.002735,25.637421 61.003829,32.762109 C 61.003829,32.881327 61.003829,33.000546 61.003829,33.120859 C 61.003829,33.241171 61.003829,33.362577 61.003829,33.485078 C 61.003829,33.607578 61.003829,33.730078 61.003829,33.853671 C 61.003829,33.978359 61.003829,34.103046 61.003829,34.228827 L 61.003829,133.27664 C 61.003829,160.22883 61.702735,192.42773 78.151641,215.53101 C 99.14836,244.92445 132.40055,259.27664 168.44836,270.82336 C 172.29727,272.22117 175.80164,273.97336 179.99508,275.02664 C 184.89727,273.62883 188.04727,272.22117 191.89617,270.82336 C 227.59945,259.27664 260.85164,244.92445 282.20274,215.53101 C 298.29727,192.42773 298.99617,160.22883 298.99617,133.27664 L 298.99617,34.228827 C 298.99617,26.875546 298.99617,21.628828 299.35055,14.275546 L 299.35055,14.279921 L 300.71883,14.344453 C 300.3743,21.658359 300.3743,26.875546 300.3743,34.228827 L 300.3743,133.27664 C 300.3743,146.76258 300.19711,161.6168 297.99211,176.04773 C 295.78711,190.47867 291.54445,204.51586 283.32492,216.30867 L 283.32492,216.31851 L 283.31508,216.32836 C 272.4968,231.22195 258.67617,242.28633 243.10336,251.06695 C 227.54367,259.83008 210.24602,266.33242 192.36648,272.10742 L 192.36867,272.11289 C 188.57883,273.48117 185.36977,274.91836 180.37899,276.3457 L 180.02461,276.44414"
       style="fill:#06000f;fill-opacity:1;fill-rule:nonzero;stroke:none"
       id="path525" />
    <path
       d="M 61.00383,133.27664 L 61.00383,34.228827 L 61.00383,133.27664 M 61.00383,33.853671 C 61.00383,33.730077 61.00383,33.607577 61.00383,33.485077 C 61.00383,33.607577 61.00383,33.730077 61.00383,33.853671 M 61.00383,33.120859 C 61.00383,33.000546 61.00383,32.881327 61.00383,32.762109 C 61.00383,32.881327 61.00383,33.000546 61.00383,33.120859 M 278.35383,14.629921 L 82.000549,14.629921 C 73.60383,14.629921 67.648361,14.275546 60.649455,14.275546 C 67.648361,14.275546 73.60383,14.629921 82.000549,14.629921 L 278.35383,14.629921 C 286.39617,14.629921 292.69617,14.275546 299.35055,14.275546 C 292.69617,14.275546 286.39617,14.629921 278.35383,14.629921"
       style="fill:#06000f;fill-opacity:1;fill-rule:nonzero;stroke:none"
       id="path529" />
    <path
       id="path521"
       style="fill:#06000f;fill-opacity:1;fill-rule:nonzero;stroke:none"
       d="M 180.34945,209.92992 C 167.74945,209.92992 163.90054,207.82336 163.90054,202.23211 C 163.90054,200.12555 164.25492,198.02883 165.29836,195.57773 C 162.52023,196.72289 158.67132,197.02805 154.53695,197.02805 C 149.82289,197.02805 144.73695,196.63101 140.45273,196.63101 L 93.202731,196.63101 L 93.202731,104.58211 C 93.202731,92.326639 94.600544,77.62992 92.848356,66.073358 C 95.998356,66.427733 99.492887,66.073358 102.65273,66.427733 C 105.44836,62.933201 108.59836,58.72992 110.70492,54.881014 C 116.99507,58.72992 124.34836,60.826639 134.49726,60.826639 C 140.09836,60.826639 150.94617,59.773358 158.29945,59.773358 C 169.50164,59.773358 178.25273,62.933201 179.29617,77.62992 C 181.74726,62.224451 190.49836,59.773358 202.39945,59.773358 C 208.69945,59.773358 215.69836,60.482108 223.05164,60.482108 C 237.04945,60.482108 241.95164,58.031014 248.95054,54.526639 C 251.40164,58.72992 254.19726,62.224451 257.35711,66.073358 C 259.79836,65.718983 263.64726,65.718983 266.80711,65.718983 L 266.80711,196.63101 L 220.60054,196.63101 C 216.56351,196.63101 212.25086,196.76883 208.08914,196.76883 C 202.87414,196.76883 197.89539,196.55226 194.00273,195.57773 C 195.40054,198.02883 195.75492,200.12555 195.75492,201.87773 C 195.75492,208.52226 188.40164,209.92992 180.34945,209.92992 M 168.10383,195.57773 C 168.44836,197.67445 168.44836,200.47992 169.50164,201.87773 C 170.89945,203.97445 175.80164,205.02773 180.34945,205.02773 C 183.85383,205.02773 187.00382,204.67336 188.74617,203.62992 C 190.85273,202.57664 191.19726,198.02883 191.89617,195.57773 C 188.40164,198.02883 184.55273,199.07226 179.65054,199.07226 C 176.14617,199.07226 171.25382,197.67445 168.10383,195.57773 M 206.29867,176.05429 C 199.30961,176.05429 192.99429,176.71601 188.74617,179.82773 C 184.19836,182.62336 181.40273,188.57883 181.04836,194.87883 C 184.19836,194.17992 186.64945,193.48101 189.10054,192.07336 C 190.15382,191.37445 191.55164,189.63211 192.59507,189.63211 C 193.23711,189.41445 193.98195,189.33023 194.80117,189.33023 C 196.24164,189.33023 197.91508,189.59164 199.67273,189.84867 C 201.44242,190.10023 203.30617,190.35836 205.10867,190.35836 C 205.49148,190.35836 205.87211,190.34742 206.24836,190.32117 L 223.75054,190.32117 C 230.05054,190.32117 241.25273,189.63211 247.55273,189.63211 C 251.40164,189.63211 255.25054,189.63211 258.05601,190.32117 C 253.85273,184.03101 249.30492,178.07555 245.80054,171.43101 C 241.25273,173.17336 237.04945,175.62445 230.74945,175.97883 C 228.05336,176.30695 225.21179,176.41414 222.31117,176.41414 C 219.65007,176.41414 216.93976,176.32445 214.25132,176.23476 C 211.55523,176.14398 208.88101,176.05429 206.29867,176.05429 M 178.25273,194.87883 C 177.89836,187.52554 175.10273,182.27883 169.50164,179.12883 C 165.29836,177.02226 159.69726,176.3332 153.39726,176.3332 C 147.79617,176.3332 141.49617,176.67773 135.55054,176.67773 C 123.29507,176.67773 119.44617,174.58101 113.50054,172.12992 C 109.99617,179.47336 105.44836,185.77336 101.24507,192.07336 C 104.40929,190.49508 108.96039,190.30039 113.70507,190.30039 C 115.26476,190.30039 116.84414,190.32117 118.40273,190.32117 C 128.19726,190.32117 138.70054,191.37445 148.84945,191.37445 C 154.09617,191.37445 158.99836,191.02992 163.54617,190.32117 C 164.25492,190.32117 166.35164,189.27773 166.69617,189.27773 C 167.74945,189.27773 169.14726,191.37445 170.20054,192.07336 C 172.29726,193.12664 175.10273,194.17992 178.25273,194.87883 M 99.148356,186.47226 L 99.847262,186.82664 C 101.24507,186.47226 109.29726,172.82883 109.65164,171.07664 C 109.88132,168.66383 109.96007,166.06289 109.96226,163.39851 C 109.96664,157.9418 109.65164,152.21492 109.65164,147.27445 L 109.65164,89.52117 C 109.65164,85.323358 109.56304,80.511951 109.56195,75.788045 C 109.56086,71.064139 109.64726,66.427733 109.99617,62.578826 C 107.55492,66.772264 105.80273,70.975545 99.847262,73.781014 L 99.847262,148.32773 C 99.847262,154.62773 100.54617,162.32555 100.54617,170.02336 C 100.54617,175.97883 100.20164,181.57992 99.148356,186.47226 M 260.85164,186.12773 C 259.86617,179.43289 259.65617,171.8543 259.66054,164.26148 C 259.66492,158.35633 259.79836,152.44242 259.79836,146.92992 L 259.79836,73.072264 C 255.25054,71.32992 251.75601,66.427733 249.64945,62.224451 C 250.27507,67.630858 250.40414,73.776639 250.40523,79.927889 C 250.40633,84.136639 250.34836,88.347576 250.34836,92.326639 L 250.34836,148.32773 C 250.34836,153.02976 249.71726,158.52367 249.72711,163.74523 C 249.73148,166.29476 249.89007,168.77976 250.34836,171.07664 C 250.70273,173.87226 254.19726,177.73101 255.94945,179.82773 C 257.70164,182.27883 259.09945,184.03101 260.85164,186.12773 M 180.34945,122.07445 C 180.34945,142.72664 181.04836,163.72336 181.04836,184.03101 C 186.8682,173.0093 198.74086,172.48101 211.7532,172.48101 C 212.43132,172.48101 213.11492,172.4832 213.79851,172.4843 C 214.34976,172.48539 214.90211,172.48539 215.45554,172.48539 C 223.22007,172.48539 231.21539,172.34867 238.44726,170.02336 C 240.89836,169.32445 244.75711,168.62555 246.14507,166.52883 C 246.78711,165.46133 246.90961,159.45445 246.90742,153.89601 C 246.90632,150.33367 246.85383,146.95398 246.85383,145.17773 L 246.85383,59.773358 L 245.80054,59.773358 C 240.89836,62.578826 234.59836,63.976639 226.90054,63.976639 C 220.60054,63.976639 213.60164,63.277733 206.24836,63.277733 C 199.24945,63.277733 193.30382,63.622264 189.45492,66.073358 C 184.19836,69.922264 181.74726,75.178826 181.40273,84.973358 C 180.70382,96.874451 180.34945,109.47445 180.34945,122.07445 M 152.69836,172.12992 C 164.95382,172.12992 174.04945,174.92554 178.25273,183.67664 L 178.25273,109.47445 C 178.25273,103.92476 178.56445,97.64117 178.56226,91.655076 C 178.56117,86.69492 178.34351,81.939295 177.55382,77.974451 C 176.50054,73.781014 174.39398,69.577733 171.59836,67.47117 C 167.39507,63.976639 161.09507,63.277733 154.45054,63.277733 C 146.75273,63.277733 141.49617,64.331014 130.64836,64.331014 C 121.89726,64.331014 118.40273,62.578826 113.14617,60.127733 L 113.14617,145.17773 C 113.14617,147.9843 112.61351,154.52601 112.61789,159.78258 C 112.62007,163.04305 112.83007,165.80914 113.50054,166.8832 C 115.59726,171.07664 128.55164,172.82883 138.70054,172.82883 C 144.30164,172.82883 148.84945,172.12992 152.69836,172.12992 M 274.59461,176.38133 C 272.97914,176.38133 271.0957,176.25117 268.90382,175.97883 L 269.60273,172.82883 L 271.72898,174.42351 L 278.02898,174.06914 L 280.54898,172.96664 L 282.05507,168.62555 L 282.16336,167.21789 L 268.54945,166.8832 L 269.24836,164.77664 C 269.95273,164.89476 270.65492,164.97351 271.30461,164.97351 C 272.59961,164.97351 273.6857,164.6607 274.15054,163.72336 C 275.20382,162.32555 275.54836,157.42336 275.54836,153.57445 C 275.54836,148.68211 274.84945,141.32883 274.50492,138.52336 C 275.90273,139.93101 278.35382,143.77992 280.10601,143.77992 C 283.25601,143.77992 284.29945,141.67336 286.05164,140.27555 C 285.69726,146.57555 285.35273,170.02336 282.90164,173.52773 C 281.60664,175.33898 279.16757,176.38133 274.59461,176.38133 M 276.60164,164.77664 C 277.47773,165.12555 278.44023,165.30054 279.35789,165.30054 C 280.27554,165.30054 281.14945,165.12555 281.84836,164.77664 C 282.90164,158.82117 283.25601,151.47773 283.95492,145.17773 C 281.84836,146.57555 281.14945,147.62883 280.45054,147.62883 C 279.75164,147.62883 279.05273,146.57555 277.65492,144.8332 C 277.30054,150.77883 277.30054,158.47664 276.60164,164.77664 M 84.716325,173.78476 C 79.725544,173.78476 77.4582,172.93273 76.39945,171.07664 C 73.948356,167.22773 73.24945,144.47883 72.904919,138.17883 C 74.647262,139.23211 76.054919,141.32883 78.850544,141.32883 C 80.602731,141.32883 83.043981,137.47992 84.796169,136.08211 C 84.451637,138.87773 83.752731,146.22117 83.752731,151.12336 C 83.752731,154.62773 84.097262,159.87445 85.150544,161.28211 C 85.49945,161.80383 86.19945,161.97883 87.073356,161.97883 C 87.948356,161.97883 88.99945,161.80383 90.052731,161.62664 L 90.751637,164.07773 C 90.687106,164.1018 90.621481,164.12367 90.555856,164.14664 L 90.57445,164.01867 L 84.599294,164.74711 L 77.846481,165.00305 L 77.373981,165.4657 L 77.157419,165.55429 L 76.990075,168.62555 L 80.110544,170.89945 L 88.99945,170.77148 L 89.698356,170.02336 L 90.397262,173.52773 C 88.191169,173.69726 86.314294,173.78476 84.716325,173.78476 M 75.346169,142.37226 C 76.054919,149.02664 76.39945,156.37992 77.098356,161.98101 C 77.797262,162.32992 78.673356,162.50492 79.592106,162.50492 C 80.51195,162.50492 81.473356,162.32992 82.345075,161.98101 C 82.000544,155.68101 82.000544,148.32773 81.646169,142.02773 C 79.903825,144.12445 79.54945,145.17773 78.496169,145.17773 C 77.797262,145.17773 77.098356,144.12445 75.346169,142.37226 M 83.106325,104.81617 C 82.278356,104.81617 81.43945,104.74945 80.602731,104.58211 C 71.851637,102.82992 73.603825,77.62992 72.196169,67.47117 C 74.302731,68.524451 76.753825,69.922264 78.151637,69.922264 C 79.54945,69.922264 82.69945,67.47117 84.451637,66.073358 C 84.451637,68.878826 83.752731,75.178826 83.752731,81.124451 C 83.752731,87.07992 84.451637,92.67117 86.193981,93.37992 C 86.902731,93.724451 88.99945,93.724451 90.751637,93.724451 C 90.397262,94.078826 90.751637,94.777733 90.751637,95.831014 C 90.692575,95.840858 90.633512,95.849608 90.57445,95.859451 L 90.57445,95.486483 L 87.001169,95.614451 L 78.643825,96.224764 L 77.216481,96.224764 L 76.901481,97.55367 L 76.704606,99.384608 L 77.826794,100.1032 L 79.657731,101.01867 L 82.3057,101.93414 L 90.57445,101.21555 L 90.57445,101.09633 C 90.633512,101.08976 90.692575,101.08429 90.751637,101.07773 C 90.397262,101.77664 90.397262,103.52883 90.397262,103.87336 C 88.271012,104.14242 85.7357,104.81617 83.106325,104.81617 M 75.346169,71.674451 C 76.39945,79.027733 76.054919,87.424451 76.753825,94.423358 C 78.496169,94.423358 80.602731,94.423358 82.000544,94.078826 C 82.000544,92.67117 81.646169,90.928826 81.646169,90.22992 L 81.646169,71.32992 C 79.903825,72.727733 79.54945,74.125545 78.496169,74.125545 C 78.151637,74.125545 77.442887,73.072264 75.346169,71.674451 M 277.54445,103.98492 C 274.88554,103.98492 271.75414,103.41617 269.60273,103.17445 C 269.60273,102.82992 269.24836,101.42226 269.24836,100.37883 L 271.47304,101.1368 L 275.96179,101.63883 L 279.94851,101.08758 L 282.11414,99.473201 L 283.1182,96.342889 L 283.16742,95.338826 L 269.24836,94.777733 L 269.24836,92.326639 C 270.07742,92.473201 270.79711,92.545389 271.42382,92.545389 C 275.30007,92.545389 275.59758,89.794608 275.90273,84.973358 C 276.24726,77.974451 275.54836,70.62117 274.84945,64.331014 C 274.84945,63.976639 274.84945,63.622264 275.20382,63.622264 C 276.24726,63.622264 278.35382,67.825545 281.84836,67.825545 C 283.60054,67.825545 285.35273,66.772264 287.79398,64.675545 C 285.69726,74.824451 287.79398,100.02445 280.79507,103.52883 C 279.90914,103.86242 278.77711,103.98492 277.54445,103.98492 M 277.65492,92.67117 C 278.67976,93.190701 279.70461,93.514451 281.14508,93.514451 C 281.66898,93.514451 282.24757,93.471795 282.90164,93.37992 C 283.95492,86.725545 283.60054,77.275545 283.95492,70.276639 C 282.54726,71.674451 281.84836,72.373357 281.14945,72.373357 C 280.10601,72.028826 279.40711,71.32992 277.99945,69.577733 C 278.14382,72.704764 278.22914,75.947733 278.23242,79.164451 C 278.23789,83.867576 278.06945,88.516014 277.65492,92.67117M 271.72898,174.42352 L 269.60273,172.82883 C 271.91382,173.07493 273.7382,173.20508 275.1907,173.20508 C 279.89929,173.20508 280.69882,171.8379 281.50382,168.62555 L 281.14945,167.92665 C 279.52304,167.92665 277.97539,167.96493 276.50429,167.96493 C 273.54132,167.96493 270.89117,167.81071 268.54945,166.88321 L 282.16335,167.21789 L 282.05507,168.62555 L 280.54898,172.96664 L 278.02898,174.06914 L 271.72898,174.42352M 275.9618,101.63883 L 271.47305,101.1368 L 269.24836,100.37883 C 271.24992,100.54289 273.88367,100.94539 276.24617,100.94539 C 278.84602,100.94539 281.11555,100.45758 281.84836,98.626643 C 282.20274,97.927736 282.20274,96.52008 282.20274,96.175549 C 277.30055,96.175549 272.75274,95.831018 269.24836,94.777736 L 283.16742,95.33883 L 283.11821,96.342893 L 282.11414,99.473205 L 279.94852,101.08758 L 275.9618,101.63883M 82.305705,101.93414 L 79.657736,101.01867 L 77.826799,100.1032 L 76.704611,99.384609 L 76.901486,97.553671 L 77.216486,96.224765 L 78.64383,96.224765 L 87.001174,95.614452 L 90.574455,95.486484 L 90.574455,95.859453 C 86.430236,96.529921 82.276174,96.879921 77.442892,97.228827 L 77.442892,98.981015 C 79.863361,100.95086 81.864924,101.54914 84.664924,101.54914 C 86.288049,101.54914 88.179142,101.34789 90.574455,101.09633 L 90.574455,101.21555 L 82.305705,101.93414M 80.110548,170.89945 L 76.990079,168.62554 L 77.157423,165.55429 L 77.373985,165.4657 L 77.846486,165.00304 L 84.599298,164.74711 L 90.574454,164.01867 L 90.55586,164.14664 C 86.760548,165.47445 82.616329,165.47554 77.797267,165.47554 L 77.442892,166.17445 C 78.242423,169.09804 79.041954,170.40836 83.82711,170.40836 C 85.341954,170.40836 87.258204,170.27711 89.69836,170.02336 L 88.999454,170.77148 L 80.110548,170.89945" />
    <path
       id="path5339"
       style="fill:#1c1b1a;fill-opacity:1;fill-rule:nonzero;stroke:none"
       d="M 222.35273,156.37992 C 219.54726,155.68101 216.40711,155.68101 213.24726,155.68101 C 209.39836,155.68101 205.19508,156.37992 201.70055,156.37992 C 202.75383,148.32773 202.04508,142.72664 205.19508,137.12555 C 202.39945,136.08211 201.70055,133.97555 201.70055,131.87883 C 201.70055,129.77226 203.09836,127.67555 203.79726,125.92336 L 204.50601,125.92336 C 204.50601,127.33101 204.85055,129.77226 205.54945,130.12664 C 207.29508,131.37461 211.52461,131.55398 214.57398,131.55398 C 215.80664,131.55398 216.8468,131.52445 217.45055,131.52445 C 220.60055,131.52445 223.75055,132.92226 223.75055,140.62992 C 223.75055,150.07992 222.35273,150.42445 222.35273,156.37992 M 212.90273,149.72555 C 215.69836,149.72555 218.14945,149.72555 220.60055,150.42445 C 220.60055,143.77992 220.24617,140.62992 218.14945,138.87773 C 216.40711,137.47992 213.24726,137.47992 207.30164,137.47992 C 206.24836,140.62992 205.54945,143.77992 205.54945,145.87664 C 205.54945,146.57555 205.90383,150.07992 205.90383,150.42445 C 208.00055,150.07992 210.45164,149.72555 212.90273,149.72555 M 151.99945,156.37992 C 148.49508,155.68101 145.34508,155.68101 141.85055,155.68101 C 138.70055,155.68101 134.85164,156.02555 131.70164,156.37992 C 132.04617,148.68211 131.70164,141.67336 135.55055,137.12555 C 132.75492,136.08211 131.70164,134.32992 131.70164,132.22336 C 131.70164,130.12664 132.75492,128.37445 133.79836,126.27773 L 134.49726,126.27773 C 135.19617,129.77226 136.60383,130.82555 141.85055,131.17992 C 148.84945,131.87883 153.75164,132.22336 153.75164,141.67336 C 153.75164,146.57555 151.99945,151.12336 151.99945,156.37992 M 142.90383,150.07992 C 145.69945,150.07992 147.79617,150.42445 150.24726,150.77883 C 149.54836,144.12445 149.90273,141.32883 148.49508,139.93101 C 147.09726,138.17883 144.30164,138.17883 137.30273,137.47992 C 135.89508,140.97445 135.19617,145.17773 135.19617,150.77883 C 137.64726,150.42445 140.45273,150.07992 142.90383,150.07992 M 246.90742,153.89601 C 246.90633,150.33367 246.85383,146.95398 246.85383,145.17773 C 246.85383,146.95398 246.90633,150.33367 246.90742,153.89601 M 161.09508,142.02773 L 160.40601,142.02773 C 160.40601,140.97445 160.40601,138.87773 160.05164,138.52336 C 159.69726,137.82445 158.99836,136.42664 157.94508,135.02883 C 156.54726,133.62117 156.20273,131.87883 156.20273,130.48101 C 156.20273,128.37445 158.65383,125.92336 159.69726,124.17117 L 160.40601,124.52555 L 160.40601,127.67555 C 161.09508,130.48101 164.59945,131.87883 164.59945,135.72773 C 164.59945,137.47992 162.50273,139.93101 161.09508,142.02773 M 232.14726,141.32883 L 231.10383,140.97445 C 231.10383,139.93101 231.10383,137.12555 230.74945,136.77117 C 230.40492,136.08211 228.65273,135.02883 227.95383,134.32992 C 226.55601,133.27664 226.20164,131.52445 226.20164,130.12664 C 226.20164,128.02008 228.29836,125.57883 229.69617,123.82664 L 230.40492,123.82664 C 230.05055,125.22445 229.69617,126.63211 230.05055,127.33101 C 230.74945,130.82555 234.95273,130.12664 234.95273,133.97555 C 234.95273,135.02883 233.20055,138.87773 232.14726,141.32883 M 119.10164,113.67773 C 118.04836,113.67773 118.04836,112.97883 118.40273,112.97883 C 119.10164,111.92555 119.10164,110.87226 119.10164,109.47445 C 119.10164,108.07664 118.40273,105.28101 118.40273,102.82992 C 118.40273,100.02445 121.55273,96.874452 122.59617,94.777734 C 119.80055,93.379921 118.40273,90.928827 118.40273,88.477734 C 118.40273,86.381015 119.10164,83.920077 121.19836,82.532109 L 121.89726,82.532109 C 120.85383,86.725546 124.00383,89.17664 126.10055,89.17664 C 127.15383,86.725546 128.19726,84.973359 130.29398,82.532109 L 131.34726,82.532109 C 131.00273,87.079921 132.75492,88.822265 134.85164,89.875546 C 138.00164,91.627734 141.15164,92.32664 141.15164,96.520077 C 141.15164,100.02445 139.39945,104.22773 138.70055,107.02336 C 137.30273,111.57117 135.89508,113.32336 132.40055,113.32336 C 131.34726,113.32336 129.94945,112.97883 127.85273,112.97883 C 126.79945,112.97883 125.40164,113.32336 124.70273,113.32336 L 123.64945,113.32336 C 124.70273,111.22664 125.04726,109.47445 125.74617,107.37773 L 131.00273,107.37773 C 132.40055,107.37773 134.49726,107.37773 135.19617,106.67883 C 136.60383,105.62555 137.64726,102.47555 137.64726,101.07773 C 137.64726,95.831015 130.64836,94.423359 126.44508,92.32664 C 125.04726,95.122265 122.25164,97.927734 122.25164,100.37883 C 122.25164,101.77664 122.95055,103.87336 122.95055,105.62555 C 122.95055,109.82883 120.49945,111.92555 119.10164,113.67773 M 140.79726,113.32336 C 141.49617,110.52773 141.49617,109.12992 142.20492,108.43101 C 142.90383,107.72226 143.60273,107.72226 146.75273,106.67883 C 146.39836,104.22773 146.39836,102.12117 146.39836,100.37883 C 146.39836,98.62664 146.39836,96.874452 147.09726,94.777734 C 143.60273,93.724452 143.24836,90.928827 143.24836,87.778827 C 143.24836,86.381015 143.60273,84.628827 143.94726,82.87664 L 144.64617,82.87664 C 145.69945,87.079921 147.09726,88.123359 149.20383,88.123359 C 150.94617,88.123359 152.69836,87.778827 154.80492,87.778827 C 156.20273,87.778827 157.60055,87.778827 158.99836,88.477734 C 162.14836,90.229921 159.69726,104.58211 162.84726,108.07664 C 162.14836,109.82883 160.75055,111.92555 158.99836,112.97883 L 158.29945,112.97883 C 158.29945,111.22664 158.65383,107.02336 158.65383,102.82992 C 158.65383,98.981015 158.29945,95.47664 156.90164,94.777734 C 156.08461,94.42664 155.26758,94.309609 154.45055,94.309609 C 152.81648,94.309609 151.18242,94.777734 149.54836,94.777734 C 149.20383,95.831015 148.49508,96.874452 148.49508,98.62664 C 148.49508,102.82992 151.30055,107.37773 151.30055,109.47445 C 151.30055,112.27992 148.84945,113.32336 140.79726,113.32336 M 212.90273,112.97883 L 212.20383,112.97883 C 211.84945,110.87226 211.84945,108.77555 211.84945,107.02336 C 211.84945,102.82992 212.20383,99.325546 212.54836,95.122265 C 206.94726,95.122265 205.54945,93.379921 205.54945,88.822265 C 205.54945,87.424452 205.90383,85.327734 206.60273,83.575546 L 207.30164,83.575546 C 207.64617,84.274452 208.00055,85.672265 208.35492,86.381015 C 208.69945,87.424452 210.09726,88.123359 211.84945,88.123359 C 214.30055,88.477734 216.75164,88.477734 216.75164,90.928827 C 216.75164,94.078827 216.05273,95.122265 215.35383,96.520077 C 214.99945,97.573359 214.64508,98.62664 214.64508,99.679921 C 214.64508,101.77664 214.64508,105.28101 215.69836,106.67883 C 216.05273,107.02336 216.05273,107.37773 216.75164,107.72226 L 216.75164,108.43101 C 215.69836,110.87226 214.30055,111.92555 212.90273,112.97883 M 201.00164,112.97883 L 200.30273,112.97883 C 200.30273,111.22664 200.65711,107.02336 200.65711,102.82992 C 200.65711,98.981015 200.30273,97.228827 199.94836,96.520077 C 199.29648,95.381484 198.11305,95.078515 196.71414,95.078515 C 195.11398,95.078515 193.23273,95.47664 191.55164,95.47664 C 189.10055,95.47664 185.95055,93.025546 185.95055,88.822265 C 185.95055,87.424452 185.95055,85.672265 187.00383,84.274452 L 187.70273,84.274452 C 188.40164,86.725546 189.10055,88.477734 190.85273,88.477734 L 197.85164,88.477734 C 199.60383,88.477734 201.34617,88.822265 201.70055,89.521171 C 204.85055,95.122265 202.04508,104.22773 205.19508,108.07664 C 204.15164,109.82883 202.75383,111.92555 201.00164,112.97883 M 224.02508,112.95258 C 222.68851,112.95258 221.23164,112.74695 219.90164,112.62445 L 219.90164,111.57117 L 222.35273,110.17336 C 221.99836,108.43101 221.99836,106.67883 221.99836,105.28101 C 221.99836,103.52883 222.35273,101.77664 223.75055,100.72336 C 224.44945,100.02445 225.14836,99.679921 226.55601,98.981015 C 223.75055,97.228827 220.60055,94.078827 220.60055,89.521171 C 220.60055,87.778827 221.29945,84.973359 223.05164,83.575546 L 223.75055,83.575546 C 223.05164,91.627734 230.05055,94.777734 235.29726,97.228827 C 239.15601,91.972265 233.55492,92.32664 233.55492,88.123359 C 233.55492,86.381015 235.65164,84.274452 237.04945,82.87664 L 237.74836,83.221171 C 237.40383,84.274452 237.40383,84.973359 237.74836,86.02664 C 238.10273,87.079921 239.50055,87.778827 240.19945,88.123359 C 240.89836,89.17664 241.25273,90.229921 241.25273,91.273359 C 241.25273,94.078827 238.80164,96.520077 237.04945,97.927734 C 237.01008,97.888359 236.9882,97.870859 236.98164,97.870859 C 236.92367,97.870859 237.82601,99.019296 238.44726,99.325546 C 240.89836,100.72336 241.95164,102.82992 241.95164,105.28101 C 241.95164,107.37773 240.89836,110.52773 238.10273,112.62445 L 237.04945,112.62445 C 237.74836,111.22664 237.74836,109.82883 237.74836,108.77555 C 237.74836,104.22773 231.80273,101.77664 227.59945,99.679921 C 227.25492,100.72336 225.84726,101.77664 225.84726,103.87336 C 225.84726,104.92664 228.65273,107.37773 228.65273,108.77555 C 228.65273,112.21539 226.55383,112.95258 224.02508,112.95258 M 169.84617,112.62445 L 168.80273,112.62445 C 169.14726,109.82883 169.50164,105.62555 169.50164,102.47555 C 169.50164,99.679921 169.84617,97.228827 170.20055,94.777734 C 164.25492,94.777734 163.20164,93.379921 163.20164,88.822265 C 163.20164,87.079921 163.54617,85.327734 163.90055,83.221171 L 164.59945,83.221171 C 164.95383,84.274452 165.29836,85.672265 165.65273,86.02664 C 166.35164,87.079921 167.74945,87.778827 169.14726,88.123359 C 171.59836,88.477734 174.39398,88.822265 174.39398,90.574452 C 174.39398,93.724452 173.00601,95.122265 172.65164,96.175546 C 172.65164,97.228827 172.29726,98.62664 172.29726,99.325546 C 172.29726,101.77664 172.29726,105.28101 173.00601,106.32445 C 173.35055,107.02336 173.70492,107.37773 174.39398,107.37773 L 174.39398,108.07664 C 173.00601,110.87226 172.29726,111.57117 169.84617,112.62445" />
    <path
       id="path481"
       style="fill:#ffffff;fill-opacity:1;fill-rule:nonzero;stroke:none"
       d="M 275.1907,173.20508 C 273.7382,173.20508 271.91382,173.07492 269.60273,172.82883 L 268.54945,166.88321 C 270.89117,167.81071 273.54132,167.96492 276.50429,167.96492 C 277.97539,167.96492 279.52304,167.92664 281.14945,167.92664 L 281.50383,168.62555 C 280.69882,171.83789 279.89929,173.20508 275.1907,173.20508 M 276.24617,100.94539 C 273.88367,100.94539 271.24992,100.54289 269.24836,100.37883 L 269.24836,94.777734 C 272.75273,95.831015 277.30054,96.175546 282.20273,96.175546 C 282.20273,96.520077 282.20273,97.927734 281.84836,98.62664 C 281.11554,100.45758 278.84601,100.94539 276.24617,100.94539 M 84.664923,101.54914 C 81.864923,101.54914 79.86336,100.95086 77.442892,98.981015 L 77.442892,97.228827 C 82.276173,96.879921 86.430235,96.529921 90.574454,95.859452 L 90.574454,101.09633 C 88.179142,101.34789 86.288048,101.54914 84.664923,101.54914 M 83.827111,170.40836 C 79.041955,170.40836 78.242424,169.09805 77.442892,166.17445 L 77.797267,165.47555 C 82.61633,165.47555 86.760548,165.47445 90.555861,164.14664 L 89.698361,170.02336 C 87.258205,170.27711 85.341955,170.40836 83.827111,170.40836 M 181.04836,184.03102 C 181.04836,163.72336 180.34945,142.72665 180.34945,122.07446 C 180.34945,109.47446 180.70383,96.874458 181.40274,84.973364 C 181.74727,75.178833 184.19836,69.92227 189.45492,66.073364 C 193.30383,63.62227 199.24945,63.277739 206.24836,63.277739 C 213.60164,63.277739 220.60055,63.976645 226.90055,63.976645 C 234.59836,63.976645 240.89836,62.578833 245.80055,59.773364 L 246.85383,59.773364 L 246.85383,145.17774 C 246.85383,146.95399 246.90633,150.33368 246.90742,153.89602 C 246.90961,159.45446 246.78711,165.46133 246.14508,166.52883 C 244.75711,168.62555 240.89836,169.32446 238.44727,170.02336 C 231.21539,172.34868 223.22008,172.4854 215.45555,172.4854 C 214.90211,172.4854 214.34977,172.4854 213.79852,172.4843 C 213.11492,172.48321 212.43133,172.48102 211.7532,172.48102 C 198.74086,172.48102 186.8682,173.0093 181.04836,184.03102 M 213.24727,155.68102 C 216.40711,155.68102 219.54727,155.68102 222.35273,156.37993 C 222.35273,150.42446 223.75055,150.07993 223.75055,140.62993 C 223.75055,132.92227 220.60055,131.52446 217.45055,131.52446 C 216.8468,131.52446 215.80664,131.55399 214.57398,131.55399 C 211.52461,131.55399 207.29508,131.37461 205.54945,130.12665 C 204.85055,129.77227 204.50602,127.33102 204.50602,125.92336 L 203.79727,125.92336 C 203.09836,127.67555 201.70055,129.77227 201.70055,131.87883 C 201.70055,133.97555 202.39945,136.08211 205.19508,137.12555 C 202.04508,142.72665 202.75383,148.32774 201.70055,156.37993 C 205.19508,156.37993 209.39836,155.68102 213.24727,155.68102 M 229.69617,123.82665 C 228.29836,125.57883 226.20164,128.02008 226.20164,130.12665 C 226.20164,131.52446 226.55602,133.27665 227.95383,134.32993 C 228.65274,135.02883 230.40492,136.08211 230.74945,136.77118 C 231.10383,137.12555 231.10383,139.93102 231.10383,140.97446 L 232.14727,141.32883 C 233.20055,138.87774 234.95273,135.02883 234.95273,133.97555 C 234.95273,130.12665 230.74945,130.82555 230.05055,127.33102 C 229.69617,126.63211 230.05055,125.22446 230.40492,123.82665 L 229.69617,123.82665 M 206.60273,83.575551 C 205.90383,85.327739 205.54945,87.424458 205.54945,88.82227 C 205.54945,93.379926 206.94727,95.12227 212.54836,95.12227 C 212.20383,99.325551 211.84945,102.82993 211.84945,107.02336 C 211.84945,108.77555 211.84945,110.87227 212.20383,112.97883 L 212.90274,112.97883 C 214.30055,111.92555 215.69836,110.87227 216.75164,108.43102 L 216.75164,107.72227 C 216.05274,107.37774 216.05274,107.02336 215.69836,106.67883 C 214.64508,105.28102 214.64508,101.77665 214.64508,99.679926 C 214.64508,98.626645 214.99945,97.573364 215.35383,96.520083 C 216.05274,95.12227 216.75164,94.078833 216.75164,90.928833 C 216.75164,88.477739 214.30055,88.477739 211.84945,88.123364 C 210.09727,88.123364 208.69945,87.424458 208.35492,86.38102 C 208.00055,85.67227 207.64617,84.274458 207.30164,83.575551 L 206.60273,83.575551 M 196.71414,95.07852 C 198.11305,95.07852 199.29648,95.381489 199.94836,96.520083 C 200.30274,97.228833 200.65711,98.98102 200.65711,102.82993 C 200.65711,107.02336 200.30274,111.22665 200.30274,112.97883 L 201.00164,112.97883 C 202.75383,111.92555 204.15164,109.82883 205.19508,108.07665 C 202.04508,104.22774 204.85055,95.12227 201.70055,89.521176 C 201.34617,88.82227 199.60383,88.477739 197.85164,88.477739 L 190.85273,88.477739 C 189.10055,88.477739 188.40164,86.725551 187.70273,84.274458 L 187.00383,84.274458 C 185.95055,85.67227 185.95055,87.424458 185.95055,88.82227 C 185.95055,93.025551 189.10055,95.476645 191.55164,95.476645 C 193.23273,95.476645 195.11399,95.07852 196.71414,95.07852 M 223.05164,83.575551 C 221.29945,84.973364 220.60055,87.778833 220.60055,89.521176 C 220.60055,94.078833 223.75055,97.228833 226.55602,98.98102 C 225.14836,99.679926 224.44945,100.02446 223.75055,100.72336 C 222.35273,101.77665 221.99836,103.52883 221.99836,105.28102 C 221.99836,106.67883 221.99836,108.43102 222.35273,110.17336 L 219.90164,111.57118 L 219.90164,112.62446 C 221.23164,112.74696 222.68852,112.95258 224.02508,112.95258 C 226.55383,112.95258 228.65274,112.2154 228.65274,108.77555 C 228.65274,107.37774 225.84727,104.92665 225.84727,103.87336 C 225.84727,101.77665 227.25492,100.72336 227.59945,99.679926 C 231.80274,101.77665 237.74836,104.22774 237.74836,108.77555 C 237.74836,109.82883 237.74836,111.22665 237.04945,112.62446 L 238.10273,112.62446 C 240.89836,110.52774 241.95164,107.37774 241.95164,105.28102 C 241.95164,102.82993 240.89836,100.72336 238.44727,99.325551 C 237.82602,99.019301 236.92367,97.870864 236.98164,97.870864 C 236.9882,97.870864 237.01008,97.888364 237.04945,97.927739 C 238.80164,96.520083 241.25274,94.078833 241.25274,91.273364 C 241.25274,90.229926 240.89836,89.176645 240.19945,88.123364 C 239.50055,87.778833 238.10273,87.079926 237.74836,86.026645 C 237.40383,84.973364 237.40383,84.274458 237.74836,83.221176 L 237.04945,82.876645 C 235.65164,84.274458 233.55492,86.38102 233.55492,88.123364 C 233.55492,92.326645 239.15602,91.97227 235.29727,97.228833 C 230.05055,94.777739 223.05164,91.627739 223.75055,83.575551 L 223.05164,83.575551 M 178.25274,183.67665 C 174.04945,174.92555 164.95383,172.12993 152.69836,172.12993 C 148.84945,172.12993 144.30164,172.82883 138.70055,172.82883 C 128.55164,172.82883 115.59727,171.07665 113.50055,166.88321 C 112.83008,165.80915 112.62008,163.04305 112.61789,159.78258 C 112.61352,154.52602 113.14617,147.9843 113.14617,145.17774 L 113.14617,60.127739 C 118.40273,62.578833 121.89727,64.33102 130.64836,64.33102 C 141.49617,64.33102 146.75274,63.277739 154.45055,63.277739 C 161.09508,63.277739 167.39508,63.976645 171.59836,67.471176 C 174.39399,69.577739 176.50055,73.78102 177.55383,77.974458 C 178.34352,81.939301 178.56117,86.694926 178.56227,91.655083 C 178.56445,97.641176 178.25274,103.92477 178.25274,109.47446 L 178.25274,183.67665 M 141.85055,155.68102 C 145.34508,155.68102 148.49508,155.68102 151.99945,156.37993 C 151.99945,151.12336 153.75164,146.57555 153.75164,141.67336 C 153.75164,132.22336 148.84945,131.87883 141.85055,131.17993 C 136.60383,130.82555 135.19617,129.77227 134.49727,126.27774 L 133.79836,126.27774 C 132.75492,128.37446 131.70164,130.12665 131.70164,132.22336 C 131.70164,134.32993 132.75492,136.08211 135.55055,137.12555 C 131.70164,141.67336 132.04617,148.68211 131.70164,156.37993 C 134.85164,156.02555 138.70055,155.68102 141.85055,155.68102 M 159.69727,124.17118 C 158.65383,125.92336 156.20273,128.37446 156.20273,130.48102 C 156.20273,131.87883 156.54727,133.62118 157.94508,135.02883 C 158.99836,136.42665 159.69727,137.82446 160.05164,138.52336 C 160.40602,138.87774 160.40602,140.97446 160.40602,142.02774 L 161.09508,142.02774 C 162.50274,139.93102 164.59945,137.47993 164.59945,135.72774 C 164.59945,131.87883 161.09508,130.48102 160.40602,127.67555 L 160.40602,124.52555 L 159.69727,124.17118 M 121.19836,82.532114 C 119.10164,83.920083 118.40273,86.38102 118.40273,88.477739 C 118.40273,90.928833 119.80055,93.379926 122.59617,94.777739 C 121.55273,96.874458 118.40273,100.02446 118.40273,102.82993 C 118.40273,105.28102 119.10164,108.07665 119.10164,109.47446 C 119.10164,110.87227 119.10164,111.92555 118.40273,112.97883 C 118.04836,112.97883 118.04836,113.67774 119.10164,113.67774 C 120.49945,111.92555 122.95055,109.82883 122.95055,105.62555 C 122.95055,103.87336 122.25164,101.77665 122.25164,100.37883 C 122.25164,97.927739 125.04727,95.12227 126.44508,92.326645 C 130.64836,94.423364 137.64727,95.83102 137.64727,101.07774 C 137.64727,102.47555 136.60383,105.62555 135.19617,106.67883 C 134.49727,107.37774 132.40055,107.37774 131.00274,107.37774 L 125.74617,107.37774 C 125.04727,109.47446 124.70274,111.22665 123.64945,113.32336 L 124.70274,113.32336 C 125.40164,113.32336 126.79945,112.97883 127.85273,112.97883 C 129.94945,112.97883 131.34727,113.32336 132.40055,113.32336 C 135.89508,113.32336 137.30274,111.57118 138.70055,107.02336 C 139.39945,104.22774 141.15164,100.02446 141.15164,96.520083 C 141.15164,92.326645 138.00164,91.627739 134.85164,89.875551 C 132.75492,88.82227 131.00274,87.079926 131.34727,82.532114 L 130.29398,82.532114 C 128.19727,84.973364 127.15383,86.725551 126.10055,89.176645 C 124.00383,89.176645 120.85383,86.725551 121.89727,82.532114 L 121.19836,82.532114 M 143.94727,82.876645 C 143.60273,84.628833 143.24836,86.38102 143.24836,87.778833 C 143.24836,90.928833 143.60273,93.724458 147.09727,94.777739 C 146.39836,96.874458 146.39836,98.626645 146.39836,100.37883 C 146.39836,102.12118 146.39836,104.22774 146.75274,106.67883 C 143.60273,107.72227 142.90383,107.72227 142.20492,108.43102 C 141.49617,109.12993 141.49617,110.52774 140.79727,113.32336 C 148.84945,113.32336 151.30055,112.27993 151.30055,109.47446 C 151.30055,107.37774 148.49508,102.82993 148.49508,98.626645 C 148.49508,96.874458 149.20383,95.83102 149.54836,94.777739 C 151.18242,94.777739 152.81649,94.309614 154.45055,94.309614 C 155.26758,94.309614 156.08461,94.426645 156.90164,94.777739 C 158.29945,95.476645 158.65383,98.98102 158.65383,102.82993 C 158.65383,107.02336 158.29945,111.22665 158.29945,112.97883 L 158.99836,112.97883 C 160.75055,111.92555 162.14836,109.82883 162.84727,108.07665 C 159.69727,104.58211 162.14836,90.229926 158.99836,88.477739 C 157.60055,87.778833 156.20273,87.778833 154.80492,87.778833 C 152.69836,87.778833 150.94617,88.123364 149.20383,88.123364 C 147.09727,88.123364 145.69945,87.079926 144.64617,82.876645 L 143.94727,82.876645 M 163.90055,83.221176 C 163.54617,85.327739 163.20164,87.079926 163.20164,88.82227 C 163.20164,93.379926 164.25492,94.777739 170.20055,94.777739 C 169.84617,97.228833 169.50164,99.679926 169.50164,102.47555 C 169.50164,105.62555 169.14727,109.82883 168.80274,112.62446 L 169.84617,112.62446 C 172.29727,111.57118 173.00602,110.87227 174.39399,108.07665 L 174.39399,107.37774 C 173.70492,107.37774 173.35055,107.02336 173.00602,106.32446 C 172.29727,105.28102 172.29727,101.77665 172.29727,99.325551 C 172.29727,98.626645 172.65164,97.228833 172.65164,96.175551 C 173.00602,95.12227 174.39399,93.724458 174.39399,90.574458 C 174.39399,88.82227 171.59836,88.477739 169.14727,88.123364 C 167.74945,87.778833 166.35164,87.079926 165.65274,86.026645 C 165.29836,85.67227 164.95383,84.274458 164.59945,83.221176 L 163.90055,83.221176 M 279.35789,165.30055 C 278.44023,165.30055 277.47773,165.12555 276.60164,164.77665 C 277.30055,158.47665 277.30055,150.77883 277.65492,144.83321 C 279.05273,146.57555 279.75164,147.62883 280.45055,147.62883 C 281.14945,147.62883 281.84836,146.57555 283.95492,145.17774 C 283.25602,151.47774 282.90164,158.82118 281.84836,164.77665 C 281.14945,165.12555 280.27555,165.30055 279.35789,165.30055 M 79.59211,162.50493 C 78.67336,162.50493 77.797266,162.32993 77.09836,161.98102 C 76.399454,156.37993 76.054923,149.02665 75.346173,142.37227 C 77.09836,144.12446 77.797266,145.17774 78.496173,145.17774 C 79.549454,145.17774 79.903829,144.12446 81.646172,142.02774 C 82.000547,148.32774 82.000547,155.68102 82.345079,161.98102 C 81.47336,162.32993 80.511954,162.50493 79.59211,162.50493 M 150.24727,150.77883 C 147.79617,150.42446 145.69945,150.07993 142.90383,150.07993 C 140.45273,150.07993 137.64727,150.42446 135.19617,150.77883 C 135.19617,145.17774 135.89508,140.97446 137.30274,137.47993 C 144.30164,138.17883 147.09727,138.17883 148.49508,139.93102 C 149.90274,141.32883 149.54836,144.12446 150.24727,150.77883 M 220.60055,150.42446 C 218.14945,149.72555 215.69836,149.72555 212.90274,149.72555 C 210.45164,149.72555 208.00055,150.07993 205.90383,150.42446 C 205.90383,150.07993 205.54945,146.57555 205.54945,145.87665 C 205.54945,143.77993 206.24836,140.62993 207.30164,137.47993 C 213.24727,137.47993 216.40711,137.47993 218.14945,138.87774 C 220.24617,140.62993 220.60055,143.77993 220.60055,150.42446 M 76.753829,94.423364 C 76.054923,87.424458 76.399454,79.027739 75.346173,71.674458 C 77.442891,73.07227 78.151641,74.125551 78.496173,74.125551 C 79.549454,74.125551 79.903829,72.727739 81.646172,71.329926 L 81.646172,90.229926 C 81.646172,90.928833 82.000547,92.671176 82.000547,94.078833 C 80.602735,94.423364 78.496173,94.423364 76.753829,94.423364 M 281.14508,93.514458 C 279.70461,93.514458 278.67977,93.190708 277.65492,92.671176 C 278.06945,88.51602 278.23789,83.867583 278.23242,79.164458 C 278.22914,75.947739 278.14383,72.70477 277.99945,69.577739 C 279.40711,71.329926 280.10602,72.028833 281.14945,72.373364 C 281.84836,72.373364 282.54727,71.674458 283.95492,70.276645 C 283.60055,77.275551 283.95492,86.725551 282.90164,93.379926 C 282.24758,93.471801 281.66899,93.514458 281.14508,93.514458M 180.34945,205.02773 C 175.80164,205.02773 170.89945,203.97445 169.50164,201.87773 C 168.44836,200.47992 168.44836,197.67445 168.10383,195.57773 C 171.25382,197.67445 176.14617,199.07226 179.65054,199.07226 C 184.55273,199.07226 188.40164,198.02882 191.89617,195.57773 C 191.19726,198.02882 190.85273,202.57664 188.74617,203.62992 C 187.00382,204.67335 183.85383,205.02773 180.34945,205.02773" />
    <rect
       style="fill:none;fill-opacity:1;stroke:none;stroke-width:22.5;stroke-linecap:round;stroke-linejoin:round;stroke-miterlimit:4;stroke-dasharray:none;stroke-opacity:1"
       id="rect4836"
       width="360"
       height="360"
       x="0"
       y="0" />
  </g>
</svg>
